# xmcd
#
# Track frame offsets: 
#        183
#        12325
#        24510
#        37623
#        50698
#        61850
#        73210
#        86355
#        99100
#        111053
#        122023
#        134125
#
# Disc length: 1951 seconds
#
# Revision: 2
# Processed by: cddbd v1.5.2PL0 Copyright (c) Steve Scherf et al.
# Submitted via: ExactAudioCopy v1.0b1
#
DISCID=97079d0c
DTITLE=Mary Wells - My Guy
DYEAR=1964
DGENRE=Soul
TTITLE0=He's the One I Love
TTITLE1=WQhisper You Love Me Boy
TTITLE2=My Guy
TTITLE3=Does He Love Me?
TTITLE4=How? When My Heart Belongs to You
TTITLE5=He Holds His Own
TTITLE6=My Baby Just Cares for Me
TTITLE7=I Only Have Eyes for You
TTITLE8=You Do Somethjing to Me
TTITLE9=It Had to Be You
TTITLE10=If You Love Me (Really Love Me)
TTITLE11=At Last
EXTD=
EXTT0=
EXTT1=
EXTT2=
EXTT3=
EXTT4=
EXTT5=
EXTT6=
EXTT7=
EXTT8=
EXTT9=
EXTT10=
EXTT11=
PLAYORDER=
